<?xml version="1.0" standalone="no"?>
<!DOCTYPE svg PUBLIC "-//W3C//DTD SVG 20010904//EN"
 "http://www.w3.org/TR/2001/REC-SVG-20010904/DTD/svg10.dtd">
<svg version="1.0" xmlns="http://www.w3.org/2000/svg"
 width="1024.000000pt" height="1024.000000pt" viewBox="0 0 1024.000000 1024.000000"
 preserveAspectRatio="xMidYMid meet">
<metadata>
Created by potrace 1.14, written by Peter Selinger 2001-2017
</metadata>
<g transform="translate(0.000000,1024.000000) scale(0.100000,-0.100000)"
fill="#000000" stroke="none">
<path d="M5727 8964 c-1 -1 -22 -5 -47 -8 -37 -6 -89 -15 -110 -21 -90 -25
-228 -115 -290 -189 -110 -131 -152 -241 -162 -431 -2 -33 15 -137 28 -180 43
-139 99 -212 341 -447 32 -31 140 -139 240 -240 100 -101 485 -485 855 -855
370 -370 709 -708 752 -752 l80 -80 -56 0 c-31 1 -61 -2 -67 -5 -5 -4 -12 -2
-15 3 -3 5 -21 5 -41 1 -19 -4 -37 -4 -40 0 -3 4 -21 4 -40 0 -19 -4 -37 -4
-40 0 -3 4 -20 5 -37 1 -18 -3 -53 -4 -78 -1 -25 3 -66 3 -91 -1 -26 -3 -55
-2 -65 2 -11 3 -28 3 -39 -1 -11 -4 -29 -4 -40 0 -11 4 -34 4 -52 0 -18 -4
-34 -5 -37 -3 -7 8 -106 9 -106 2 0 -4 -18 -3 -40 1 -22 4 -43 4 -45 0 -3 -4
-20 -4 -39 0 -19 4 -40 4 -46 0 -7 -4 -25 -4 -40 0 -15 4 -33 4 -40 0 -6 -4
-26 -4 -44 0 -17 4 -40 4 -51 0 -11 -4 -26 -5 -32 -3 -19 7 -103 9 -103 2 0
-3 -20 -3 -45 1 -25 4 -45 3 -45 -2 0 -5 -4 -7 -9 -3 -9 5 -124 9 -146 5 -11
-2 -50 0 -80 4 -11 2 -34 0 -52 -5 -18 -4 -35 -3 -38 1 -3 4 -21 4 -40 0 -19
-4 -37 -4 -40 0 -3 4 -21 4 -40 0 -19 -4 -37 -4 -40 0 -3 4 -21 4 -40 0 -19
-4 -37 -4 -40 0 -3 4 -21 4 -40 0 -19 -4 -37 -4 -40 0 -3 4 -21 4 -40 0 -19
-4 -37 -4 -40 0 -3 4 -21 4 -40 0 -20 -4 -38 -4 -41 1 -3 5 -10 7 -15 3 -9 -5
-47 -6 -139 -3 -30 1 -134 0 -162 -2 -7 0 -41 1 -75 2 -35 1 -65 0 -68 -3 -3
-3 -24 -2 -45 2 -22 4 -43 4 -45 0 -3 -4 -20 -5 -38 0 -18 4 -42 4 -52 0 -11
-4 -29 -4 -40 0 -11 4 -32 4 -47 -1 -14 -4 -29 -5 -31 -2 -8 8 -197 9 -197 1
0 -4 -6 -5 -14 -2 -20 8 -226 10 -226 3 0 -4 -15 -3 -34 1 -19 4 -39 4 -46 0
-7 -4 -26 -4 -44 0 -17 4 -40 4 -51 0 -11 -4 -32 -4 -47 1 -14 4 -29 5 -31 3
-3 -3 -27 -5 -53 -4 -47 1 -70 1 -96 -1 -7 0 -41 1 -75 2 -35 1 -65 0 -68 -3
-3 -3 -24 -2 -45 2 -22 4 -43 4 -45 0 -3 -4 -20 -5 -38 0 -18 4 -42 4 -52 0
-11 -4 -29 -4 -40 0 -11 4 -32 4 -47 -1 -14 -4 -29 -5 -31 -2 -8 8 -197 9
-197 1 0 -4 -6 -5 -14 -2 -20 8 -226 10 -226 3 0 -4 -15 -3 -34 1 -19 4 -39 4
-46 0 -7 -4 -26 -4 -44 0 -17 4 -40 4 -51 0 -11 -4 -32 -4 -47 1 -14 4 -29 5
-31 3 -3 -3 -27 -5 -53 -4 -47 1 -70 1 -96 -1 -7 0 -41 1 -75 2 -35 1 -65 0
-68 -3 -3 -3 -24 -2 -45 2 -22 4 -43 4 -45 0 -3 -4 -20 -5 -38 0 -18 4 -42 4
-52 0 -11 -4 -29 -4 -40 0 -11 4 -32 4 -47 -1 -14 -4 -29 -5 -31 -2 -8 8 -197
9 -197 1 0 -4 -6 -5 -14 -2 -20 8 -226 10 -226 3 0 -4 -15 -3 -34 1 -19 4 -40
4 -47 -1 -7 -4 -17 -5 -21 -3 -16 10 -122 4 -188 -9 -124 -27 -227 -84 -320
-177 -41 -42 -84 -94 -95 -115 -11 -22 -23 -41 -27 -43 -4 -2 -20 -42 -35 -90
-22 -71 -27 -106 -27 -187 0 -82 8 -180 14 -180 1 0 3 -8 5 -17 9 -51 89 -189
141 -246 48 -52 171 -146 193 -147 3 -1 16 -6 29 -13 12 -7 22 -10 22 -6 0 3
6 2 12 -4 29 -23 198 -48 303 -44 6 1 33 1 60 1 53 0 77 1 98 2 6 0 40 -1 74
-2 35 -1 65 0 68 3 3 3 24 2 45 -2 22 -4 43 -4 45 0 3 4 20 5 38 0 18 -4 42
-4 52 0 11 4 29 4 40 0 11 -4 32 -4 47 1 14 4 29 5 31 2 8 -8 197 -9 197 -1 0
4 6 5 14 2 20 -8 226 -10 226 -3 0 4 15 3 34 -1 19 -4 39 -4 46 0 7 4 26 4 44
0 17 -4 40 -4 51 0 11 4 32 4 47 -1 14 -4 29 -5 31 -3 3 3 27 5 53 4 47 -1 70
-1 97 1 6 0 40 -1 74 -2 35 -1 65 0 68 3 3 3 24 2 45 -2 22 -4 43 -4 45 0 3 4
20 5 38 0 18 -4 42 -4 52 0 11 4 29 4 40 0 11 -4 32 -4 47 1 14 4 29 5 31 2 8
-8 197 -9 197 -1 0 4 6 5 14 2 20 -8 226 -10 226 -3 0 4 15 3 34 -1 19 -4 39
-4 46 0 7 4 26 4 44 0 17 -4 40 -4 51 0 11 4 32 4 47 -1 14 -4 29 -5 31 -3 3
3 27 5 53 4 47 -1 70 -1 97 1 6 0 40 -1 74 -2 35 -1 65 0 68 3 3 3 24 2 45 -2
22 -4 43 -4 45 0 3 4 20 5 38 0 18 -4 42 -4 52 0 11 4 29 4 40 0 11 -4 32 -4
47 1 14 4 29 5 31 2 8 -8 197 -9 197 -1 0 4 6 5 14 2 20 -8 226 -10 226 -3 0
4 15 3 34 -1 19 -4 39 -4 46 0 7 4 28 4 49 -1 20 -4 36 -8 36 -8 0 6 77 14 80
9 3 -4 21 -4 40 0 19 4 37 4 40 0 3 -4 21 -4 40 0 19 4 37 4 40 0 3 -4 21 -4
40 0 19 4 37 4 40 0 3 -4 21 -4 40 0 19 4 37 4 40 0 3 -4 21 -4 40 0 19 4 37
4 40 0 3 -4 21 -4 40 0 19 4 37 4 40 0 3 -4 20 -5 37 -1 18 3 53 4 78 1 25 -3
66 -3 91 1 26 3 55 2 65 -2 11 -3 28 -3 39 1 11 4 29 4 40 0 11 -4 34 -4 52 0
18 4 34 5 37 3 7 -8 106 -9 106 -2 0 4 18 3 40 -1 22 -4 43 -4 45 0 3 4 20 4
39 0 19 -4 40 -4 46 0 7 4 25 4 40 0 15 -4 33 -4 40 0 6 4 26 4 44 0 17 -4 40
-4 51 0 11 4 26 5 32 3 19 -7 103 -9 103 -2 0 3 20 3 45 -1 25 -4 45 -3 45 2
0 5 4 7 9 3 9 -5 124 -9 146 -5 11 2 50 0 80 -4 11 -2 34 0 52 5 18 4 35 3 38
-1 3 -4 20 -5 37 -1 18 4 45 4 59 0 15 -3 32 -3 39 1 7 4 25 4 40 0 15 -4 33
-5 39 -1 6 4 25 5 42 3 30 -4 -5 -40 -878 -913 -1255 -1256 -1254 -1254 -1293
-1324 -19 -33 -35 -63 -36 -67 -1 -5 -3 -10 -4 -13 -1 -3 -3 -8 -5 -12 -1 -5
-7 -20 -13 -34 -21 -51 -30 -134 -27 -231 2 -54 6 -102 10 -108 3 -5 8 -20 11
-32 8 -37 10 -41 27 -82 9 -21 17 -40 17 -42 0 -11 77 -114 114 -152 46 -49
164 -131 197 -137 11 -2 26 -8 33 -13 11 -10 53 -22 96 -28 14 -2 41 -7 60 -9
71 -11 188 -3 240 17 14 5 25 9 25 8 0 -1 14 4 30 10 60 21 121 56 170 96 66
54 3234 3222 3296 3297 49 58 113 178 124 232 3 17 9 44 13 60 8 36 8 198 0
240 -16 79 -65 191 -112 255 -14 19 -763 772 -1664 1673 -1612 1614 -1721
1718 -1793 1732 -11 2 -26 8 -33 13 -6 6 -27 13 -46 18 -50 11 -50 11 -52 14
-4 3 -158 16 -161 14z"/>
</g>
</svg>
